<?xml version="1.0" encoding="UTF-8"?><svg id="Layer_1" xmlns="http://www.w3.org/2000/svg" viewBox="0 0 432 432"><path d="M400.31,380.51h-96.34c-2.05,0-3.99-.89-5.33-2.43l-69.1-79.84c-2.29-2.65-2.29-6.58,0-9.23l48.21-55.66c2.81-3.24,7.85-3.24,10.65,0l117.24,135.5c3.95,4.56.71,11.66-5.33,11.66Z" style="fill:#221f20;"/><path d="M405.64,63.15l-117.24,135.5c-2.81,3.25-7.84,3.25-10.65,0l-48.21-55.66c-2.29-2.65-2.29-6.58,0-9.23l69.1-79.84c1.34-1.55,3.28-2.43,5.33-2.43h96.34c6.04,0,9.28,7.09,5.33,11.66Z" style="fill:#221f20;"/><circle cx="32.52" cy="59.38" r="7.88" style="fill:#221f20;"/><circle cx="63.66" cy="59.38" r="7.88" style="fill:#221f20;"/><circle cx="94.8" cy="59.38" r="7.88" style="fill:#221f20;"/><circle cx="125.94" cy="59.38" r="7.88" style="fill:#221f20;"/><circle cx="51.62" cy="81.75" r="7.88" style="fill:#221f20;"/><circle cx="82.76" cy="81.75" r="7.88" style="fill:#221f20;"/><circle cx="113.9" cy="81.75" r="7.88" style="fill:#221f20;"/><circle cx="145.04" cy="81.75" r="7.88" style="fill:#221f20;"/><circle cx="70.72" cy="104.13" r="7.88" style="fill:#221f20;"/><circle cx="101.86" cy="104.13" r="7.88" style="fill:#221f20;"/><circle cx="133.01" cy="104.13" r="7.88" style="fill:#221f20;"/><circle cx="164.15" cy="104.13" r="7.88" style="fill:#221f20;"/><circle cx="89.83" cy="126.5" r="7.88" style="fill:#221f20;"/><circle cx="120.97" cy="126.5" r="7.88" style="fill:#221f20;"/><circle cx="152.11" cy="126.5" r="7.88" style="fill:#221f20;"/><circle cx="183.25" cy="126.5" r="7.88" style="fill:#221f20;"/><circle cx="108.93" cy="148.88" r="7.88" style="fill:#221f20;"/><circle cx="140.07" cy="148.88" r="7.88" style="fill:#221f20;"/><circle cx="171.21" cy="148.88" r="7.88" style="fill:#221f20;"/><circle cx="202.35" cy="148.88" r="7.88" style="fill:#221f20;"/><circle cx="128.03" cy="171.25" r="7.88" style="fill:#221f20;"/><circle cx="159.17" cy="171.25" r="7.88" style="fill:#221f20;"/><circle cx="190.32" cy="171.25" r="7.88" style="fill:#221f20;"/><circle cx="221.46" cy="171.25" r="7.88" style="fill:#221f20;"/><circle cx="147.14" cy="193.63" r="7.88" style="fill:#221f20;"/><circle cx="178.28" cy="193.63" r="7.88" style="fill:#221f20;"/><circle cx="209.42" cy="193.63" r="7.88" style="fill:#221f20;"/><circle cx="240.56" cy="193.63" r="7.88" style="fill:#221f20;"/><circle cx="166.24" cy="216" r="7.88" style="fill:#221f20;"/><circle cx="197.38" cy="216" r="7.88" style="fill:#221f20;"/><circle cx="228.52" cy="216" r="7.88" style="fill:#221f20;"/><circle cx="259.67" cy="216" r="7.88" style="fill:#221f20;"/><circle cx="32.52" cy="372.62" r="7.88" style="fill:#221f20;"/><circle cx="63.66" cy="372.62" r="7.88" style="fill:#221f20;"/><circle cx="94.8" cy="372.62" r="7.88" style="fill:#221f20;"/><circle cx="125.94" cy="372.62" r="7.88" style="fill:#221f20;"/><circle cx="51.62" cy="350.25" r="7.88" style="fill:#221f20;"/><circle cx="82.76" cy="350.25" r="7.88" style="fill:#221f20;"/><circle cx="113.9" cy="350.25" r="7.88" style="fill:#221f20;"/><circle cx="145.04" cy="350.25" r="7.88" style="fill:#221f20;"/><circle cx="70.72" cy="327.87" r="7.88" style="fill:#221f20;"/><circle cx="101.86" cy="327.87" r="7.88" style="fill:#221f20;"/><circle cx="133.01" cy="327.87" r="7.88" style="fill:#221f20;"/><circle cx="164.15" cy="327.87" r="7.88" style="fill:#221f20;"/><circle cx="89.83" cy="305.5" r="7.88" style="fill:#221f20;"/><circle cx="120.97" cy="305.5" r="7.88" style="fill:#221f20;"/><circle cx="152.11" cy="305.5" r="7.88" style="fill:#221f20;"/><circle cx="183.25" cy="305.5" r="7.88" style="fill:#221f20;"/><circle cx="108.93" cy="283.12" r="7.88" style="fill:#221f20;"/><circle cx="140.07" cy="283.12" r="7.88" style="fill:#221f20;"/><circle cx="171.21" cy="283.12" r="7.88" style="fill:#221f20;"/><circle cx="202.35" cy="283.12" r="7.88" style="fill:#221f20;"/><circle cx="128.03" cy="260.75" r="7.88" style="fill:#221f20;"/><circle cx="159.17" cy="260.75" r="7.88" style="fill:#221f20;"/><circle cx="190.32" cy="260.75" r="7.88" style="fill:#221f20;"/><circle cx="221.46" cy="260.75" r="7.88" style="fill:#221f20;"/><circle cx="147.14" cy="238.37" r="7.88" style="fill:#221f20;"/><circle cx="178.28" cy="238.37" r="7.88" style="fill:#221f20;"/><circle cx="209.42" cy="238.37" r="7.88" style="fill:#221f20;"/><circle cx="240.56" cy="238.37" r="7.88" style="fill:#221f20;"/></svg>